<?xml version="1.0" standalone="no"?>
<!DOCTYPE svg PUBLIC "-//W3C//DTD SVG 20010904//EN"
 "http://www.w3.org/TR/2001/REC-SVG-20010904/DTD/svg10.dtd">
<svg version="1.0" xmlns="http://www.w3.org/2000/svg"
 width="733.000000pt" height="255.000000pt" viewBox="0 0 733.000000 255.000000"
 preserveAspectRatio="xMidYMid meet">

<g transform="translate(0.000000,255.000000) scale(0.100000,-0.100000)"
fill="#000000" stroke="none">
<path d="M2813 2183 c9 -2 23 -2 30 0 6 3 -1 5 -18 5 -16 0 -22 -2 -12 -5z"/>
<path d="M2675 2161 c-114 -28 -203 -60 -322 -116 -140 -66 -259 -148 -388
-265 -295 -268 -615 -451 -1120 -640 -175 -65 -197 -80 -39 -26 332 113 614
241 834 378 137 86 201 134 325 243 271 240 429 331 710 410 124 35 124 46 0
16z"/>
<path d="M3508 2161 c-53 -3 -102 -11 -108 -17 -9 -9 11 -30 78 -85 49 -41
133 -113 185 -160 73 -65 107 -89 144 -100 54 -15 45 -15 663 -4 314 5 504 4
614 -4 88 -6 161 -9 163 -8 6 6 -179 85 -367 157 -245 94 -435 157 -511 169
-248 40 -656 64 -861 52z"/>
<path d="M2915 2099 c-136 -18 -402 -100 -412 -127 -3 -7 15 -35 41 -62 49
-52 115 -149 136 -199 7 -17 20 -31 29 -31 9 0 169 7 356 15 187 8 382 15 433
16 51 2 95 6 97 10 8 11 -95 149 -155 208 -140 138 -323 197 -525 170z"/>
<path d="M2314 1892 c-113 -59 -193 -120 -250 -190 -51 -63 -54 -74 -16 -62
44 15 177 30 260 30 42 0 128 3 190 7 132 7 133 8 71 104 -66 102 -122 159
-154 159 -5 -1 -51 -22 -101 -48z"/>
<path d="M4647 1745 c-165 -5 -295 -13 -291 -17 4 -5 42 -8 84 -8 203 0 985
-105 1130 -151 131 -42 316 -195 456 -374 8 -11 -21 52 -65 140 -45 88 -81
168 -81 177 0 22 16 26 136 38 217 21 397 10 539 -34 69 -21 69 -11 0 19 -179
80 -563 149 -1075 194 -286 25 -461 29 -833 16z"/>
<path d="M5081 1518 c-38 -20 -65 -62 -57 -91 11 -44 69 -110 121 -136 69 -36
162 -37 199 -2 29 28 33 59 11 100 -42 83 -211 162 -274 129z"/>
<path d="M5480 1523 c-33 -13 -50 -37 -50 -70 0 -105 114 -218 234 -230 49 -5
57 -3 80 20 29 29 33 62 12 112 -18 42 -96 119 -147 145 -41 21 -105 33 -129
23z"/>
<path d="M6080 1521 c-58 -3 -111 -10 -117 -14 -27 -17 -13 -72 40 -160 66
-112 111 -166 153 -183 21 -9 71 -14 134 -14 55 0 177 -5 271 -11 190 -12 199
-9 199 47 0 45 -45 183 -72 224 -33 48 -71 67 -194 95 -114 26 -184 29 -414
16z"/>
<path d="M5287 1481 c32 -21 69 -51 81 -66 29 -36 29 -95 2 -120 -24 -22 -20
-31 8 -16 31 16 42 61 27 105 -17 48 -39 72 -100 107 -74 42 -88 35 -18 -10z"/>
<path d="M5680 1478 c0 -2 20 -26 45 -52 47 -51 70 -102 62 -142 -5 -29 8 -32
23 -5 26 50 -5 113 -84 169 -25 18 -46 32 -46 30z"/>
<path d="M6720 1394 c0 -27 85 -197 108 -218 20 -17 22 -17 28 -2 18 47 -80
236 -122 236 -8 0 -14 -7 -14 -16z"/>
<path d="M4277 1310 c54 -13 122 -59 158 -108 75 -101 110 -302 86 -487 -31
-231 -108 -362 -247 -421 l-59 -25 65 5 c84 8 155 43 213 105 82 88 124 207
134 381 10 180 -40 352 -133 459 -48 56 -141 101 -204 100 -42 -1 -43 -1 -13
-9z"/>
<path d="M2060 1104 c0 -24 54 -166 70 -187 42 -54 49 -54 555 -61 259 -3 571
-9 695 -12 124 -4 223 -4 220 -1 -3 2 -95 10 -205 16 -888 51 -1067 62 -1115
71 -71 13 -117 45 -174 120 -25 34 -46 58 -46 54z"/>
<path d="M605 1060 c-13 -5 -14 -9 -5 -9 8 0 24 4 35 9 13 5 14 9 5 9 -8 0
-24 -4 -35 -9z"/>
<path d="M2266 768 c-71 -9 -130 -19 -132 -21 -8 -8 460 -17 780 -16 301 1
697 13 584 17 -26 1 -257 9 -515 17 -257 8 -495 16 -528 18 -33 2 -118 -5
-189 -15z"/>
<path d="M4775 634 c4 -66 8 -124 10 -130 4 -12 44 -17 330 -39 408 -32 1151
-29 1510 6 297 29 396 77 364 177 -16 52 -22 56 -60 33 -136 -79 -730 -105
-1405 -62 -157 10 -200 24 -251 85 l-28 34 -238 7 -239 7 7 -118z"/>
<path d="M4648 600 c-10 -41 -30 -99 -45 -130 -35 -72 -123 -159 -198 -196
l-60 -29 58 -3 c32 -2 105 1 163 7 90 8 110 13 140 36 55 42 114 101 114 113
0 8 -21 12 -58 12 -88 0 -91 4 -94 145 l-3 119 -17 -74z"/>
<path d="M1635 594 c44 -7 168 -27 275 -44 107 -16 296 -46 420 -65 l225 -36
460 -4 c477 -4 480 -2 55 30 -237 18 -730 62 -1170 105 -332 33 -388 36 -265
14z"/>
<path d="M6360 390 c-85 -4 -249 -8 -365 -9 l-210 -2 45 -40 c67 -59 174 -109
263 -122 63 -9 89 -8 154 6 92 20 201 71 261 122 45 39 53 56 25 53 -10 -1
-88 -5 -173 -8z"/>
</g>
</svg>
